<?xml version="1.0" encoding="UTF-8" standalone="no"?>
<!-- Created with Inkscape (http://www.inkscape.org/) -->

<svg
   width="130mm"
   height="130mm"
   viewBox="0 0 130 130"
   version="1.1"
   id="svg1"
   xml:space="preserve"
   inkscape:version="1.4.3 (0d15f75042, 2025-12-25)"
   sodipodi:docname="avatar-coralcake.svg"
   xmlns:inkscape="http://www.inkscape.org/namespaces/inkscape"
   xmlns:sodipodi="http://sodipodi.sourceforge.net/DTD/sodipodi-0.dtd"
   xmlns:xlink="http://www.w3.org/1999/xlink"
   xmlns="http://www.w3.org/2000/svg"
   xmlns:svg="http://www.w3.org/2000/svg"><sodipodi:namedview
     id="namedview1"
     pagecolor="#ffffff"
     bordercolor="#000000"
     borderopacity="0.25"
     inkscape:showpageshadow="2"
     inkscape:pageopacity="0.0"
     inkscape:pagecheckerboard="true"
     inkscape:deskcolor="#d1d1d1"
     inkscape:document-units="mm"
     inkscape:zoom="0.23749726"
     inkscape:cx="202.10759"
     inkscape:cy="181.05472"
     inkscape:window-width="1920"
     inkscape:window-height="975"
     inkscape:window-x="0"
     inkscape:window-y="0"
     inkscape:window-maximized="1"
     inkscape:current-layer="g182" /><defs
     id="defs1" /><g
     inkscape:label="Warstwa 1"
     inkscape:groupmode="layer"
     id="layer1"
     transform="translate(-39.999999,-59.531241)"><g
       id="g19"
       inkscape:label="background"
       style="stroke:#1e517b;stroke-opacity:1"
       sodipodi:insensitive="true"><path
         style="display:inline;opacity:1;fill:#d1f7fa;fill-opacity:1;stroke:none;stroke-width:2.30089;stroke-linecap:round;stroke-linejoin:round;stroke-dasharray:none;stroke-opacity:1"
         id="path15"
         sodipodi:type="arc"
         sodipodi:cx="105"
         sodipodi:cy="124.53124"
         sodipodi:rx="63.849556"
         sodipodi:ry="63.849556"
         sodipodi:start="3.1415927"
         sodipodi:end="0"
         sodipodi:arc-type="chord"
         d="M 41.150444,124.53124 A 63.849556,63.849556 0 0 1 105,60.681686 63.849556,63.849556 0 0 1 168.84956,124.53124 Z"
         inkscape:label="sky"
         sodipodi:open="true" /><path
         style="display:inline;opacity:1;fill:#f2efd9;fill-opacity:1;stroke:none;stroke-width:2.30089;stroke-linecap:round;stroke-linejoin:round;stroke-dasharray:none;stroke-opacity:1"
         id="circle14"
         sodipodi:type="arc"
         sodipodi:cx="105"
         sodipodi:cy="124.53124"
         sodipodi:rx="63.849556"
         sodipodi:ry="63.849556"
         sodipodi:start="0"
         sodipodi:end="3.1415927"
         sodipodi:arc-type="arc"
         d="m 168.84956,124.53124 a 63.849556,63.849556 0 0 1 -31.92478,55.29534 63.849556,63.849556 0 0 1 -63.84956,0 63.849556,63.849556 0 0 1 -31.924776,-55.29534"
         inkscape:label="beach"
         sodipodi:open="true" /><path
         id="path16"
         style="display:inline;opacity:1;fill:#85c2e0;fill-opacity:1;stroke:none;stroke-width:2.30089;stroke-linecap:round;stroke-linejoin:round;stroke-dasharray:none;stroke-opacity:1"
         inkscape:label="ocean"
         d="m 42.125967,113.41271 a 63.849556,63.849556 0 0 0 -0.975651,11.1187 H 168.8495 a 63.849556,63.849556 0 0 0 -0.97565,-11.1187 z" /><path
         id="path14"
         style="display:inline;opacity:1;fill:none;fill-opacity:0.5;stroke:#1e517b;stroke-width:2.11667;stroke-linecap:round;stroke-linejoin:round;stroke-dasharray:none;stroke-opacity:1"
         inkscape:label="horizon"
         d="M 167.60616,113.55843 H 42.257742"
         sodipodi:nodetypes="cc" /><circle
         style="display:inline;opacity:1;fill:none;fill-opacity:0.5;stroke:#1e517b;stroke-width:2.30089;stroke-linecap:round;stroke-linejoin:round;stroke-dasharray:none;stroke-opacity:1"
         id="path12"
         cx="105"
         cy="124.53124"
         r="63.849556"
         inkscape:label="circle" /></g><g
       id="g11"
       inkscape:label="cake"
       transform="translate(-0.0065116,3.5126968)"
       style="display:inline;opacity:1;stroke:#194b66;stroke-opacity:1"><path
         id="path3"
         style="display:inline;opacity:1;fill:#f0e5db;fill-opacity:1;stroke:#194b66;stroke-width:2.11667;stroke-linecap:round;stroke-linejoin:round;stroke-dasharray:none;stroke-opacity:1"
         d="m 140.73802,126.86771 c 0,0 0.42428,-2.64113 -0.99218,-5.15938 -1.41646,-2.51825 -2.3151,-2.84426 -2.3151,-2.84426 -23.08328,-17.03877 -54.56522,-9.21009 -64.934907,0.19843 0,0 -1.521355,1.05833 -2.447397,3.70417 -0.926042,2.64583 -0.727604,4.16718 -0.727604,4.16718 4.867611,23.51709 66.421238,20.37316 71.417188,-0.0661 z"
         sodipodi:nodetypes="csccscc"
         inkscape:label="base" /><g
         id="g18"
         inkscape:label="cream"
         style="stroke:#194b66;stroke-opacity:1"><path
           style="display:inline;opacity:1;fill:#f2998c;fill-opacity:1;stroke:#194b66;stroke-width:2.11667;stroke-linecap:round;stroke-linejoin:round;stroke-dasharray:none;stroke-opacity:1"
           d="m 106.23021,120.25312 c 0,0 11.91829,3.30082 21.03438,2.24896 11.44668,-1.32077 13.75681,-9.27812 11.90625,-13.36145 -1.85056,-4.08333 -6.21772,-5.15938 -6.21772,-5.15938 z"
           id="path2"
           sodipodi:nodetypes="cszcc"
           inkscape:label="cream3" /><path
           style="display:inline;opacity:1;fill:#f2998c;fill-opacity:1;stroke:#194b66;stroke-width:2.11667;stroke-linecap:round;stroke-linejoin:round;stroke-dasharray:none;stroke-opacity:1"
           d="m 84.76914,102.41805 c -9.698056,0.93637 -13.199348,3.09588 -14.202885,7.42943 -1.003537,4.33355 0.606661,12.91918 15.158744,12.91918 14.552081,0 33.022111,-5.36689 40.878121,-10.9802 7.85601,-5.61331 8.33892,-12.761651 4.49791,-16.723551 -2.84394,-2.933458 -5.41532,-3.446454 -10.50032,-2.645832 -5.085,0.800622 -26.133514,9.064603 -35.83157,10.000973 z"
           id="path1"
           sodipodi:nodetypes="zzzzzzz"
           inkscape:label="cream2" /><path
           style="display:inline;opacity:1;fill:#f2998c;fill-opacity:1;stroke:#194b66;stroke-width:2.11667;stroke-linecap:round;stroke-linejoin:round;stroke-dasharray:none;stroke-opacity:1"
           d="m 78.845832,103.05521 c 0,0 -2.573598,-3.123771 -0.661458,-7.143755 1.91214,-4.019984 6.695224,-4.612987 11.641667,-6.879164 4.946443,-2.266177 5.646895,-6.144825 7.276041,-8.995834 1.629146,-2.851009 3.722868,-5.628521 6.545138,-7.1925 2.82228,-1.563978 5.96185,-1.575538 5.96185,-1.575538 0,0 -1.13683,2.285747 0.70925,5.651685 1.84609,3.365938 7.04394,3.956204 11.39005,6.688228 4.34611,2.732024 6.27558,9.42693 0.34133,14.32003 -5.93425,4.893098 -13.39303,5.162248 -22.173563,5.176458 -8.780532,0.0142 -13.359854,-0.57112 -21.030265,-0.0496 z"
           id="path17"
           sodipodi:nodetypes="czzzzczzzzcc"
           inkscape:label="cream1" /></g><g
         id="g180"
         inkscape:label="starfish"
         transform="translate(11.982526,89.928073)"
         style="display:inline;opacity:1;stroke:#194b66;stroke-opacity:1"><path
           style="opacity:1;fill:#e7a97e;fill-opacity:1;stroke:#194b66;stroke-width:1.05833;stroke-linecap:round;stroke-linejoin:round;stroke-dasharray:none;stroke-opacity:1"
           d="m 115.49498,9.1949875 c 2.93559,0.8374565 -1.4772,11.6572555 -0.34014,14.4606245 1.13706,2.803369 14.48935,1.360257 14.08645,5.005999 -0.4029,3.645742 -12.378,1.714286 -14.03165,3.180508 -1.65365,1.466222 2.13265,13.718045 -0.43092,14.745957 -2.56356,1.027913 -5.6935,-10.766331 -7.75753,-11.983076 -2.06402,-1.216745 -12.249252,7.168092 -14.192147,4.928504 -1.942895,-2.239588 9.464737,-9.706567 9.163457,-12.215562 -0.30128,-2.508994 -10.895813,-8.92923 -8.846023,-11.57485 2.049789,-2.64562 11.892023,6.290257 13.920103,4.971951 2.02808,-1.318306 5.49281,-12.357512 8.4284,-11.5200555 z"
           id="path28"
           sodipodi:nodetypes="zzzzzzzzzzz"
           inkscape:label="starfish" /><g
           id="g147"
           inkscape:label="pattern1"
           style="display:inline;fill:#194b66;fill-opacity:1;stroke:none"
           transform="rotate(4,113.62589,27.125286)"><circle
             style="opacity:1;vector-effect:non-scaling-stroke;fill:#194b66;fill-opacity:1;stroke:none;stroke-width:0.264583;stroke-linecap:round;stroke-linejoin:round;stroke-dasharray:none;stroke-opacity:1;-inkscape-stroke:hairline"
             id="path29"
             cx="112.56333"
             cy="27.913532"
             r="1.0583333"
             inkscape:tile-cx="72.36354"
             inkscape:tile-cy="-31.617708"
             inkscape:tile-w="2.1166665"
             inkscape:tile-h="2.1166665"
             inkscape:tile-x0="71.305207"
             inkscape:tile-y0="-32.676041" /><use
             x="0"
             y="0"
             inkscape:tiled-clone-of="#path29"
             xlink:href="#path29"
             id="use140"
             style="fill:#194b66;fill-opacity:1;stroke:none" /><use
             x="0"
             y="0"
             inkscape:tiled-clone-of="#path29"
             xlink:href="#path29"
             transform="matrix(0.9,0,0,0.9,13.473501,2.7913533)"
             id="use141"
             style="fill:#194b66;fill-opacity:1;stroke:none" /><use
             x="0"
             y="0"
             inkscape:tiled-clone-of="#path29"
             xlink:href="#path29"
             transform="matrix(0.8,0,0,0.8,26.746001,5.5827066)"
             id="use142"
             style="fill:#194b66;fill-opacity:1;stroke:none" /><use
             x="0"
             y="0"
             inkscape:tiled-clone-of="#path29"
             xlink:href="#path29"
             transform="matrix(0.7,0,0,0.7,39.919208,8.3740599)"
             id="use143"
             style="fill:#194b66;fill-opacity:1;stroke:none" /><use
             x="0"
             y="0"
             inkscape:tiled-clone-of="#path29"
             xlink:href="#path29"
             transform="matrix(0.6,0,0,0.6,52.847001,11.165413)"
             id="use144"
             style="fill:#194b66;fill-opacity:1;stroke:none" /><use
             x="0"
             y="0"
             inkscape:tiled-clone-of="#path29"
             xlink:href="#path29"
             transform="matrix(0.5,0,0,0.5,65.565499,13.956767)"
             id="use145"
             style="fill:#194b66;fill-opacity:1;stroke:none" /><use
             x="0"
             y="0"
             inkscape:tiled-clone-of="#path29"
             xlink:href="#path29"
             transform="matrix(0.4,0,0,0.4,78.137999,16.74812)"
             id="use146"
             style="fill:#194b66;fill-opacity:1;stroke:none" /><use
             x="0"
             y="0"
             inkscape:tiled-clone-of="#path29"
             xlink:href="#path29"
             transform="matrix(0.3,0,0,0.3,90.8235,19.539473)"
             id="use147"
             style="fill:#194b66;fill-opacity:1;stroke:none" /></g><g
           id="g155"
           inkscape:label="pattern2"
           style="display:inline;fill:#194b66;fill-opacity:1;stroke:none"
           transform="rotate(73,109.05921,28.164031)"><circle
             style="opacity:1;vector-effect:non-scaling-stroke;fill:#194b66;fill-opacity:1;stroke:none;stroke-width:0.264583;stroke-linecap:round;stroke-linejoin:round;stroke-dasharray:none;stroke-opacity:1;-inkscape-stroke:hairline"
             id="circle147"
             cx="112.56333"
             cy="27.913532"
             r="1.0583333"
             inkscape:tile-cx="72.36354"
             inkscape:tile-cy="-31.617708"
             inkscape:tile-w="2.1166665"
             inkscape:tile-h="2.1166665"
             inkscape:tile-x0="71.305207"
             inkscape:tile-y0="-32.676041" /><use
             x="0"
             y="0"
             inkscape:tiled-clone-of="#path29"
             xlink:href="#path29"
             id="use148"
             style="fill:#194b66;fill-opacity:1;stroke:none" /><use
             x="0"
             y="0"
             inkscape:tiled-clone-of="#path29"
             xlink:href="#path29"
             transform="matrix(0.9,0,0,0.9,13.473501,2.7913533)"
             id="use149"
             style="fill:#194b66;fill-opacity:1;stroke:none" /><use
             x="0"
             y="0"
             inkscape:tiled-clone-of="#path29"
             xlink:href="#path29"
             transform="matrix(0.8,0,0,0.8,26.746001,5.5827066)"
             id="use150"
             style="fill:#194b66;fill-opacity:1;stroke:none" /><use
             x="0"
             y="0"
             inkscape:tiled-clone-of="#path29"
             xlink:href="#path29"
             transform="matrix(0.7,0,0,0.7,39.919208,8.3740599)"
             id="use151"
             style="fill:#194b66;fill-opacity:1;stroke:none" /><use
             x="0"
             y="0"
             inkscape:tiled-clone-of="#path29"
             xlink:href="#path29"
             transform="matrix(0.6,0,0,0.6,52.847001,11.165413)"
             id="use152"
             style="fill:#194b66;fill-opacity:1;stroke:none" /><use
             x="0"
             y="0"
             inkscape:tiled-clone-of="#path29"
             xlink:href="#path29"
             transform="matrix(0.5,0,0,0.5,65.565499,13.956767)"
             id="use153"
             style="fill:#194b66;fill-opacity:1;stroke:none" /><use
             x="0"
             y="0"
             inkscape:tiled-clone-of="#path29"
             xlink:href="#path29"
             transform="matrix(0.4,0,0,0.4,78.137999,16.74812)"
             id="use154"
             style="fill:#194b66;fill-opacity:1;stroke:none" /><use
             x="0"
             y="0"
             inkscape:tiled-clone-of="#path29"
             xlink:href="#path29"
             transform="matrix(0.3,0,0,0.3,90.8235,19.539473)"
             id="use155"
             style="fill:#194b66;fill-opacity:1;stroke:none" /></g><g
           id="g163"
           inkscape:label="pattern3"
           style="display:inline;fill:#194b66;fill-opacity:1;stroke:none"
           transform="rotate(144,108.98488,27.854891)"><circle
             style="opacity:1;vector-effect:non-scaling-stroke;fill:#194b66;fill-opacity:1;stroke:none;stroke-width:0.264583;stroke-linecap:round;stroke-linejoin:round;stroke-dasharray:none;stroke-opacity:1;-inkscape-stroke:hairline"
             id="circle155"
             cx="112.56333"
             cy="27.913532"
             r="1.0583333"
             inkscape:tile-cx="72.36354"
             inkscape:tile-cy="-31.617708"
             inkscape:tile-w="2.1166665"
             inkscape:tile-h="2.1166665"
             inkscape:tile-x0="71.305207"
             inkscape:tile-y0="-32.676041" /><use
             x="0"
             y="0"
             inkscape:tiled-clone-of="#path29"
             xlink:href="#path29"
             id="use156"
             style="fill:#194b66;fill-opacity:1;stroke:none" /><use
             x="0"
             y="0"
             inkscape:tiled-clone-of="#path29"
             xlink:href="#path29"
             transform="matrix(0.9,0,0,0.9,13.473501,2.7913533)"
             id="use157"
             style="fill:#194b66;fill-opacity:1;stroke:none" /><use
             x="0"
             y="0"
             inkscape:tiled-clone-of="#path29"
             xlink:href="#path29"
             transform="matrix(0.8,0,0,0.8,26.746001,5.5827066)"
             id="use158"
             style="fill:#194b66;fill-opacity:1;stroke:none" /><use
             x="0"
             y="0"
             inkscape:tiled-clone-of="#path29"
             xlink:href="#path29"
             transform="matrix(0.7,0,0,0.7,39.919208,8.3740599)"
             id="use159"
             style="fill:#194b66;fill-opacity:1;stroke:none" /><use
             x="0"
             y="0"
             inkscape:tiled-clone-of="#path29"
             xlink:href="#path29"
             transform="matrix(0.6,0,0,0.6,52.847001,11.165413)"
             id="use160"
             style="fill:#194b66;fill-opacity:1;stroke:none" /><use
             x="0"
             y="0"
             inkscape:tiled-clone-of="#path29"
             xlink:href="#path29"
             transform="matrix(0.5,0,0,0.5,65.565499,13.956767)"
             id="use161"
             style="fill:#194b66;fill-opacity:1;stroke:none" /><use
             x="0"
             y="0"
             inkscape:tiled-clone-of="#path29"
             xlink:href="#path29"
             transform="matrix(0.4,0,0,0.4,78.137999,16.74812)"
             id="use162"
             style="fill:#194b66;fill-opacity:1;stroke:none" /><use
             x="0"
             y="0"
             inkscape:tiled-clone-of="#path29"
             xlink:href="#path29"
             transform="matrix(0.3,0,0,0.3,90.8235,19.539473)"
             id="use163"
             style="fill:#194b66;fill-opacity:1;stroke:none" /></g><g
           id="g171"
           inkscape:label="pattern4"
           style="display:inline;fill:#194b66;fill-opacity:1;stroke:none"
           transform="rotate(-144,108.97843,27.752339)"><circle
             style="opacity:1;vector-effect:non-scaling-stroke;fill:#194b66;fill-opacity:1;stroke:none;stroke-width:0.264583;stroke-linecap:round;stroke-linejoin:round;stroke-dasharray:none;stroke-opacity:1;-inkscape-stroke:hairline"
             id="circle163"
             cx="112.56333"
             cy="27.913532"
             r="1.0583333"
             inkscape:tile-cx="72.36354"
             inkscape:tile-cy="-31.617708"
             inkscape:tile-w="2.1166665"
             inkscape:tile-h="2.1166665"
             inkscape:tile-x0="71.305207"
             inkscape:tile-y0="-32.676041" /><use
             x="0"
             y="0"
             inkscape:tiled-clone-of="#path29"
             xlink:href="#path29"
             id="use164"
             style="fill:#194b66;fill-opacity:1;stroke:none" /><use
             x="0"
             y="0"
             inkscape:tiled-clone-of="#path29"
             xlink:href="#path29"
             transform="matrix(0.9,0,0,0.9,13.473501,2.7913533)"
             id="use165"
             style="fill:#194b66;fill-opacity:1;stroke:none" /><use
             x="0"
             y="0"
             inkscape:tiled-clone-of="#path29"
             xlink:href="#path29"
             transform="matrix(0.8,0,0,0.8,26.746001,5.5827066)"
             id="use166"
             style="fill:#194b66;fill-opacity:1;stroke:none" /><use
             x="0"
             y="0"
             inkscape:tiled-clone-of="#path29"
             xlink:href="#path29"
             transform="matrix(0.7,0,0,0.7,39.919208,8.3740599)"
             id="use167"
             style="fill:#194b66;fill-opacity:1;stroke:none" /><use
             x="0"
             y="0"
             inkscape:tiled-clone-of="#path29"
             xlink:href="#path29"
             transform="matrix(0.6,0,0,0.6,52.847001,11.165413)"
             id="use168"
             style="fill:#194b66;fill-opacity:1;stroke:none" /><use
             x="0"
             y="0"
             inkscape:tiled-clone-of="#path29"
             xlink:href="#path29"
             transform="matrix(0.5,0,0,0.5,65.565499,13.956767)"
             id="use169"
             style="fill:#194b66;fill-opacity:1;stroke:none" /><use
             x="0"
             y="0"
             inkscape:tiled-clone-of="#path29"
             xlink:href="#path29"
             transform="matrix(0.4,0,0,0.4,78.137999,16.74812)"
             id="use170"
             style="fill:#194b66;fill-opacity:1;stroke:none" /><use
             x="0"
             y="0"
             inkscape:tiled-clone-of="#path29"
             xlink:href="#path29"
             transform="matrix(0.3,0,0,0.3,90.8235,19.539473)"
             id="use171"
             style="fill:#194b66;fill-opacity:1;stroke:none" /></g><g
           id="g179"
           inkscape:label="pattern5"
           style="display:inline;fill:#194b66;fill-opacity:1;stroke:none"
           transform="rotate(-71,108.93628,27.757306)"><circle
             style="opacity:1;vector-effect:non-scaling-stroke;fill:#194b66;fill-opacity:1;stroke:none;stroke-width:0.264583;stroke-linecap:round;stroke-linejoin:round;stroke-dasharray:none;stroke-opacity:1;-inkscape-stroke:hairline"
             id="circle171"
             cx="112.56333"
             cy="27.913532"
             r="1.0583333"
             inkscape:tile-cx="72.36354"
             inkscape:tile-cy="-31.617708"
             inkscape:tile-w="2.1166665"
             inkscape:tile-h="2.1166665"
             inkscape:tile-x0="71.305207"
             inkscape:tile-y0="-32.676041" /><use
             x="0"
             y="0"
             inkscape:tiled-clone-of="#path29"
             xlink:href="#path29"
             id="use172"
             style="fill:#194b66;fill-opacity:1;stroke:none" /><use
             x="0"
             y="0"
             inkscape:tiled-clone-of="#path29"
             xlink:href="#path29"
             transform="matrix(0.9,0,0,0.9,13.473501,2.7913533)"
             id="use173"
             style="fill:#194b66;fill-opacity:1;stroke:none" /><use
             x="0"
             y="0"
             inkscape:tiled-clone-of="#path29"
             xlink:href="#path29"
             transform="matrix(0.8,0,0,0.8,26.746001,5.5827066)"
             id="use174"
             style="fill:#194b66;fill-opacity:1;stroke:none" /><use
             x="0"
             y="0"
             inkscape:tiled-clone-of="#path29"
             xlink:href="#path29"
             transform="matrix(0.7,0,0,0.7,39.919208,8.3740599)"
             id="use175"
             style="fill:#194b66;fill-opacity:1;stroke:none" /><use
             x="0"
             y="0"
             inkscape:tiled-clone-of="#path29"
             xlink:href="#path29"
             transform="matrix(0.6,0,0,0.6,52.847001,11.165413)"
             id="use176"
             style="fill:#194b66;fill-opacity:1;stroke:none" /><use
             x="0"
             y="0"
             inkscape:tiled-clone-of="#path29"
             xlink:href="#path29"
             transform="matrix(0.5,0,0,0.5,65.565499,13.956767)"
             id="use177"
             style="fill:#194b66;fill-opacity:1;stroke:none" /><use
             x="0"
             y="0"
             inkscape:tiled-clone-of="#path29"
             xlink:href="#path29"
             transform="matrix(0.4,0,0,0.4,78.137999,16.74812)"
             id="use178"
             style="fill:#194b66;fill-opacity:1;stroke:none" /><use
             x="0"
             y="0"
             inkscape:tiled-clone-of="#path29"
             xlink:href="#path29"
             transform="matrix(0.3,0,0,0.3,90.8235,19.539473)"
             id="use179"
             style="fill:#194b66;fill-opacity:1;stroke:none" /></g></g><g
         id="g181"
         inkscape:label="form"
         style="display:inline;opacity:1;stroke:#194b66;stroke-opacity:1"><path
           style="display:inline;opacity:1;fill:#f0cca8;fill-opacity:1;stroke:#194b66;stroke-width:2.11667;stroke-linecap:round;stroke-linejoin:round;stroke-dasharray:none;stroke-opacity:1"
           d="m 104.90729,127.92604 6.41614,4.23333 5.68855,-4.36562 6.01927,3.96874 5.75468,-4.56406 5.49011,4.16719 8.33438,-5.42396 -10.3849,39.75365 c 0,0 -2.24609,5.1527 -26.59063,5.42395 -24.344543,0.27125 -27.648953,-5.42395 -27.648953,-5.42395 l -10.583333,-39.62135 8.40052,5.15938 5.423958,-3.96876 5.820834,4.49792 5.820833,-4.03489 6.151562,4.36562 z"
           id="path5"
           sodipodi:nodetypes="cccccccczcccccccc"
           inkscape:label="form" /><g
           id="g17"
           inkscape:label="lines"
           style="display:inline;opacity:1;stroke:#194b66;stroke-opacity:1"><path
             style="opacity:1;fill:none;fill-opacity:0.5;stroke:#194b66;stroke-width:2.11667;stroke-linecap:round;stroke-linejoin:round;stroke-dasharray:none;stroke-opacity:1"
             d="m 75.803124,131.16719 8.995833,37.50468"
             id="path6"
             sodipodi:nodetypes="cc" /><path
             style="opacity:1;fill:none;fill-opacity:0.5;stroke:#194b66;stroke-width:2.11667;stroke-linecap:round;stroke-linejoin:round;stroke-dasharray:none;stroke-opacity:1"
             d="m 86.915624,131.69636 5.55625,38.03384"
             id="path7"
             sodipodi:nodetypes="cc" /><path
             style="opacity:1;fill:none;fill-opacity:0.5;stroke:#194b66;stroke-width:2.11667;stroke-linecap:round;stroke-linejoin:round;stroke-dasharray:none;stroke-opacity:1"
             d="m 98.821874,132.02709 1.984376,38.36457"
             id="path8"
             sodipodi:nodetypes="cc" /><path
             style="opacity:1;fill:none;fill-opacity:0.5;stroke:#194b66;stroke-width:2.11667;stroke-linecap:round;stroke-linejoin:round;stroke-dasharray:none;stroke-opacity:1"
             d="m 111.25729,132.1901 -1.98437,38.46614"
             id="path9"
             sodipodi:nodetypes="cc" /><path
             style="opacity:1;fill:none;fill-opacity:0.5;stroke:#194b66;stroke-width:2.11667;stroke-linecap:round;stroke-linejoin:round;stroke-dasharray:none;stroke-opacity:1"
             d="m 123.03125,132.02709 -5.42396,37.9677"
             id="path10"
             sodipodi:nodetypes="cc" /><path
             style="opacity:1;fill:none;fill-opacity:0.5;stroke:#194b66;stroke-width:2.11667;stroke-linecap:round;stroke-linejoin:round;stroke-dasharray:none;stroke-opacity:1"
             d="m 134.40833,131.49792 -9.12812,37.04166"
             id="path11"
             sodipodi:nodetypes="cc" /></g></g></g><g
       id="g27"
       inkscape:label="shell"
       transform="translate(-8.2020833,66.145833)"><path
         style="opacity:1;fill:#e3caab;fill-opacity:1;stroke:#194b66;stroke-width:1.05833;stroke-linecap:round;stroke-linejoin:round;stroke-dasharray:none;stroke-opacity:1"
         d="m 93.941926,28.740356 c 0,0 1.899406,5.977769 3.373437,6.151563 1.47403,0.173793 3.777227,-1.806362 6.274467,-2.964037 2.49725,-1.157675 5.81323,-1.631968 6.39246,-3.055234 0.57923,-1.423266 -2.57969,-5.820834 -2.57969,-5.820834 z"
         id="path20"
         sodipodi:nodetypes="czzzcc"
         inkscape:label="shell1" /><path
         style="opacity:1;fill:#f1cfa7;fill-opacity:1;stroke:#194b66;stroke-width:1.05833;stroke-linecap:round;stroke-linejoin:round;stroke-dasharray:none;stroke-opacity:1"
         d="m 107.30037,26.756705 c 1.19509,-2.269219 1.85861,-3.232036 3.144,-5.728197 1.2854,-2.496161 1.20532,-4.573031 0.36376,-5.331203 -0.84156,-0.758173 -1.25103,-0.867128 -1.94271,-1.679969 -0.69169,-0.81284 -0.9751,-1.694557 -2.12996,-2.411101 -1.15485,-0.716544 -2.29417,0.07239 -2.90044,-0.411951 -0.60626,-0.484343 -1.4394,-1.13505 -3.01255,-1.3385632 -1.573145,-0.2035133 -1.879542,0.5585662 -2.914475,0.7851242 -1.034933,0.226558 -2.300878,-0.457545 -4.081338,0.369104 -1.78046,0.826648 -2.300432,2.318831 -2.865995,2.846621 -0.565564,0.52779 -2.426075,0.810204 -2.992612,2.123719 -0.566538,1.313515 -0.176711,1.490227 -0.606658,2.614707 -0.429946,1.124479 -1.141099,1.449131 -1.541701,2.601008 -0.400603,1.151877 -0.169495,1.915712 0.270258,2.955241 0.439753,1.03953 -0.42299,1.675705 0.108213,3.20767 0.531203,1.531965 2.53579,2.495451 5.075541,3.043899 2.539751,0.548448 6.168926,1.193893 7.393788,1.472034 1.224862,0.278141 3.874719,1.179002 5.295529,0.536601 1.42081,-0.642401 2.417,-3.798339 3.33735,-5.654744 z"
         id="path19"
         sodipodi:nodetypes="zzzzzzzzzzzzzzzzzzz"
         inkscape:label="shell2" /><g
         id="g26"
         inkscape:label="lines-shell"
         style="fill:none;stroke:#d8a466;stroke-opacity:1"><path
           style="opacity:1;fill:none;fill-opacity:1;stroke:#d8a466;stroke-width:1.05833;stroke-linecap:round;stroke-linejoin:round;stroke-dasharray:none;stroke-opacity:1"
           d="m 86.070571,24.077075 c 0,0 2.14974,1.058333 4.431771,2.215885 2.282031,1.157552 7.011458,3.241146 7.011458,3.241146"
           id="path21"
           sodipodi:nodetypes="czc" /><path
           style="opacity:1;fill:none;fill-opacity:1;stroke:#d8a466;stroke-width:1.05833;stroke-linecap:round;stroke-linejoin:round;stroke-dasharray:none;stroke-opacity:1"
           d="m 87.360415,18.719262 c 0,0 3.075781,3.241146 4.630208,4.53099 1.554427,1.289844 6.416146,5.126302 6.416146,5.126302"
           id="path22"
           sodipodi:nodetypes="czc" /><path
           style="opacity:1;fill:none;fill-opacity:1;stroke:#d8a466;stroke-width:1.05833;stroke-linecap:round;stroke-linejoin:round;stroke-dasharray:none;stroke-opacity:1"
           d="m 90.998436,13.989835 c 0,0 1.394948,2.697022 3.009635,5.192449 1.614688,2.495426 5.886979,7.871353 5.886979,7.871353"
           id="path23"
           sodipodi:nodetypes="czc" /><path
           style="opacity:1;fill:none;fill-opacity:1;stroke:#d8a466;stroke-width:1.05833;stroke-linecap:round;stroke-linejoin:round;stroke-dasharray:none;stroke-opacity:1"
           d="m 97.778383,11.013273 c 0,0 0.755966,1.737976 1.819014,5.093229 1.063053,3.355252 2.282033,9.988021 2.282033,9.988021"
           id="path24"
           sodipodi:nodetypes="czc" /><path
           style="opacity:1;fill:none;fill-opacity:1;stroke:#d8a466;stroke-width:1.05833;stroke-linecap:round;stroke-linejoin:round;stroke-dasharray:none;stroke-opacity:1"
           d="m 103.8638,11.377075 c 0,0 0.14104,3.389842 0.16539,5.920051 0.0243,2.53021 -0.19844,8.433595 -0.19844,8.433595"
           id="path25"
           sodipodi:nodetypes="czc" /><path
           style="opacity:1;fill:none;fill-opacity:1;stroke:#d8a466;stroke-width:1.05833;stroke-linecap:round;stroke-linejoin:round;stroke-dasharray:none;stroke-opacity:1"
           d="m 108.52708,14.055981 c 0,0 -0.68914,3.242305 -1.12448,5.225521 -0.43534,1.983216 -1.85208,6.482292 -1.85208,6.482292"
           id="path26"
           sodipodi:nodetypes="czc" /></g><path
         style="opacity:1;fill:none;fill-opacity:1;stroke:#194b66;stroke-width:1.05833;stroke-linecap:round;stroke-linejoin:round;stroke-dasharray:none;stroke-opacity:1"
         d="m 107.30037,26.756705 c 1.19509,-2.269219 1.85861,-3.232036 3.144,-5.728197 1.2854,-2.496161 1.20532,-4.573031 0.36376,-5.331203 -0.84156,-0.758173 -1.25103,-0.867128 -1.94271,-1.679969 -0.69169,-0.81284 -0.9751,-1.694557 -2.12996,-2.411101 -1.15485,-0.716544 -2.29417,0.07239 -2.90044,-0.411951 -0.60626,-0.484343 -1.4394,-1.13505 -3.01255,-1.3385632 -1.573145,-0.2035133 -1.879542,0.5585662 -2.914475,0.7851242 -1.034933,0.226558 -2.300878,-0.457545 -4.081338,0.369104 -1.78046,0.826648 -2.300432,2.318831 -2.865995,2.846621 -0.565564,0.52779 -2.426075,0.810204 -2.992612,2.123719 -0.566538,1.313515 -0.176711,1.490227 -0.606658,2.614707 -0.429946,1.124479 -1.141099,1.449131 -1.541701,2.601008 -0.400603,1.151877 -0.169495,1.915712 0.270258,2.955241 0.439753,1.03953 -0.42299,1.675705 0.108213,3.20767 0.531203,1.531965 2.53579,2.495451 5.075541,3.043899 2.539751,0.548448 6.168926,1.193893 7.393788,1.472034 1.224862,0.278141 3.874719,1.179002 5.295529,0.536601 1.42081,-0.642401 2.417,-3.798339 3.33735,-5.654744 z"
         id="path27"
         sodipodi:nodetypes="zzzzzzzzzzzzzzzzzzz"
         inkscape:label="shell2-frame" /></g><g
       id="g182"
       inkscape:label="perl"><circle
         style="opacity:1;fill:#c2d4f0;fill-opacity:1;stroke:#194b66;stroke-width:1.03887;stroke-linecap:round;stroke-linejoin:round;stroke-dasharray:none;stroke-opacity:1"
         id="path181"
         cx="96.057945"
         cy="60.738106"
         r="4.736237"
         inkscape:label="perl"
         transform="translate(-8.2020837,66.145833)" /><ellipse
         style="opacity:1;fill:#e9eff9;fill-opacity:1;stroke:none;stroke-width:1.42104;stroke-linecap:round;stroke-linejoin:round;stroke-dasharray:none;stroke-opacity:1"
         id="path182"
         cx="-27.490107"
         cy="149.56169"
         inkscape:label="perl-flash"
         rx="1.6050756"
         ry="1.2007589"
         transform="rotate(-45)" /></g></g></svg>
